<svg width="400" height="400" viewbox = "0 0 400 400"  xmlns="http://www.w3.org/2000/svg">

<!--
<json>
{
"shapes":[
    "0260:0336,0336,0336,0331,0331,0331,0331,0333,0333,0333,0333,0337,0337,0337,0331,0333,0200,0314,0200,0330,0332,0200,0330,0332,0200,0331,0200,0331,0200,0330,0333,0333,0330,0200,0331,0331,0336,0200,0330,0200,0330,0200,0332,0200,0331,0200,0331,0200,0332,0330,0200,0330,0333,0333,0331,0331,0337,0337,0200,"
],
"glyph":"0336,0336,0336,0331,0331,0331,0331,0333,0333,0333,0333,0337,0337,0337,0331,0333,0200,0314,0200,0330,0332,0200,0330,0332,0200,0331,0200,0331,0200,0330,0333,0333,0330,0200,0331,0331,0336,0200,0330,0200,0330,0200,0332,0200,0331,0200,0331,0200,0332,0330,0200,0330,0333,0333,0331,0331,0337,0337,0200,",
"w":400,
"h":400,
"x0":200,
"y0":200,
"x0rel":-4.7,
"y0rel":-1.36,
"unit":100,
"imgurl":"",
"imgw":2,
"imgleft":-1,
"imgtop":-1
}

</json>
-->
    <line x1="350" y1="350" x2="350" y2="250" style="stroke:black;stroke-width:2" />
    <line x1="350" y1="250" x2="250" y2="250" style="stroke:black;stroke-width:2" />
    <line x1="250" y1="250" x2="250" y2="350" style="stroke:black;stroke-width:2" />
    <line x1="250" y1="350" x2="350" y2="350" style="stroke:black;stroke-width:2" />
    <line x1="350" y1="350" x2="350" y2="250" style="stroke:black;stroke-width:2" />
    <line x1="350" y1="250" x2="250" y2="250" style="stroke:black;stroke-width:2" />
    <line x1="250" y1="250" x2="250" y2="350" style="stroke:black;stroke-width:2" />
    <line x1="250" y1="350" x2="350" y2="350" style="stroke:black;stroke-width:2" />
    <line x1="250" y1="250" x2="250" y2="150" style="stroke:black;stroke-width:2" />
    <line x1="250" y1="150" x2="150" y2="150" style="stroke:black;stroke-width:2" />
    <line x1="150" y1="150" x2="150" y2="250" style="stroke:black;stroke-width:2" />
    <line x1="150" y1="250" x2="250" y2="250" style="stroke:black;stroke-width:2" />
    <line x1="150" y1="150" x2="150" y2="50" style="stroke:black;stroke-width:2" />
    <line x1="150" y1="50" x2="50" y2="50" style="stroke:black;stroke-width:2" />
    <line x1="50" y1="50" x2="50" y2="150" style="stroke:black;stroke-width:2" />
    <line x1="50" y1="150" x2="150" y2="150" style="stroke:black;stroke-width:2" />
    <line x1="150" y1="250" x2="150" y2="150" style="stroke:black;stroke-width:2" />
    <line x1="150" y1="150" x2="50" y2="150" style="stroke:black;stroke-width:2" />
    <line x1="50" y1="150" x2="50" y2="250" style="stroke:black;stroke-width:2" />
    <line x1="50" y1="250" x2="150" y2="250" style="stroke:black;stroke-width:2" />
    <line x1="150" y1="350" x2="150" y2="250" style="stroke:black;stroke-width:2" />
    <line x1="150" y1="250" x2="50" y2="250" style="stroke:black;stroke-width:2" />
    <line x1="50" y1="250" x2="50" y2="350" style="stroke:black;stroke-width:2" />
    <line x1="50" y1="350" x2="150" y2="350" style="stroke:black;stroke-width:2" />
    <line x1="350" y1="150" x2="350" y2="50" style="stroke:black;stroke-width:2" />
    <line x1="350" y1="50" x2="250" y2="50" style="stroke:black;stroke-width:2" />
    <line x1="250" y1="50" x2="250" y2="150" style="stroke:black;stroke-width:2" />
    <line x1="250" y1="150" x2="350" y2="150" style="stroke:black;stroke-width:2" />
    <line x1="350" y1="350" x2="350" y2="317" style="stroke:black;stroke-width:2" />
    <line x1="350" y1="317" x2="317" y2="317" style="stroke:black;stroke-width:2" />
    <line x1="317" y1="317" x2="317" y2="350" style="stroke:black;stroke-width:2" />
    <line x1="317" y1="350" x2="350" y2="350" style="stroke:black;stroke-width:2" />
    <line x1="350" y1="317" x2="350" y2="283" style="stroke:black;stroke-width:2" />
    <line x1="350" y1="283" x2="317" y2="283" style="stroke:black;stroke-width:2" />
    <line x1="317" y1="283" x2="317" y2="317" style="stroke:black;stroke-width:2" />
    <line x1="317" y1="317" x2="350" y2="317" style="stroke:black;stroke-width:2" />
    <line x1="350" y1="283" x2="350" y2="250" style="stroke:black;stroke-width:2" />
    <line x1="350" y1="250" x2="317" y2="250" style="stroke:black;stroke-width:2" />
    <line x1="317" y1="250" x2="317" y2="283" style="stroke:black;stroke-width:2" />
    <line x1="317" y1="283" x2="350" y2="283" style="stroke:black;stroke-width:2" />
    <line x1="317" y1="283" x2="317" y2="250" style="stroke:black;stroke-width:2" />
    <line x1="317" y1="250" x2="283" y2="250" style="stroke:black;stroke-width:2" />
    <line x1="283" y1="250" x2="283" y2="283" style="stroke:black;stroke-width:2" />
    <line x1="283" y1="283" x2="317" y2="283" style="stroke:black;stroke-width:2" />
    <line x1="317" y1="317" x2="317" y2="283" style="stroke:black;stroke-width:2" />
    <line x1="317" y1="283" x2="283" y2="283" style="stroke:black;stroke-width:2" />
    <line x1="283" y1="283" x2="283" y2="317" style="stroke:black;stroke-width:2" />
    <line x1="283" y1="317" x2="317" y2="317" style="stroke:black;stroke-width:2" />
    <line x1="317" y1="350" x2="317" y2="317" style="stroke:black;stroke-width:2" />
    <line x1="317" y1="317" x2="283" y2="317" style="stroke:black;stroke-width:2" />
    <line x1="283" y1="317" x2="283" y2="350" style="stroke:black;stroke-width:2" />
    <line x1="283" y1="350" x2="317" y2="350" style="stroke:black;stroke-width:2" />
    <line x1="283" y1="317" x2="283" y2="283" style="stroke:black;stroke-width:2" />
    <line x1="283" y1="283" x2="250" y2="283" style="stroke:black;stroke-width:2" />
    <line x1="250" y1="283" x2="250" y2="317" style="stroke:black;stroke-width:2" />
    <line x1="250" y1="317" x2="283" y2="317" style="stroke:black;stroke-width:2" />
    <line x1="350" y1="350" x2="350" y2="50" style="stroke:black;stroke-width:2" />
    <line x1="350" y1="50" x2="50" y2="50" style="stroke:black;stroke-width:2" />
    <line x1="50" y1="50" x2="50" y2="350" style="stroke:black;stroke-width:2" />
    <line x1="50" y1="350" x2="350" y2="350" style="stroke:black;stroke-width:2" />
</svg>